STARTFONT 2.1
FONT -FontForge-Helvetica Neue-Bold-R-Normal--36-350-75-75-P-197-ISO10646-1
SIZE 35 75 75
FONTBOUNDINGBOX 36 37 -2 -8
COMMENT "Generated by fontforge, http://fontforge.sourceforge.net"
COMMENT "Copyright (c) 1981, 1982, 1983, 1989 and 1993, Linotype Library GmbH or its affiliated Linotype-Hell companies. All rights reserved."
COMMENT ""
COMMENT "The digitally encoded machine readable software for producing the Typefaces licensed to you is now the property of Heidelberger Druckmaschinen AG and its licensors, and may not be reproduced, used, displayed, modified, disclosed or transferred without the express written approval of Heidelberger Druckmaschinen AG."
COMMENT ""
COMMENT "Copyright (c) 1988, 1990, 1993 Adobe Systems Incorporated. All Rights Reserved."
STARTPROPERTIES 39
FOUNDRY "FontForge"
FAMILY_NAME "Helvetica Neue"
WEIGHT_NAME "Bold"
SLANT "R"
SETWIDTH_NAME "Normal"
ADD_STYLE_NAME ""
PIXEL_SIZE 36
POINT_SIZE 350
RESOLUTION_X 75
RESOLUTION_Y 75
SPACING "P"
AVERAGE_WIDTH 197
CHARSET_REGISTRY "ISO10646"
CHARSET_ENCODING "1"
FONTNAME_REGISTRY ""
CHARSET_COLLECTIONS "ISO8859-5 ISO10646-1"
FONT_NAME "HelveticaNeue-Bold"
FACE_NAME "Helvetica Neue Bold"
COPYRIGHT "Copyright (c) 1981, 1982, 1983, 1989 and 1993, Linotype Library GmbH or its affiliated Linotype-Hell companies. All rights reserved."
FONT_VERSION "6.1d8e1"
FONT_ASCENT 29
FONT_DESCENT 7
UNDERLINE_POSITION -4
UNDERLINE_THICKNESS 2
X_HEIGHT 18
CAP_HEIGHT 25
RAW_ASCENT 800
RAW_DESCENT 200
NORM_SPACE 10
RELATIVE_WEIGHT 70
RELATIVE_SETWIDTH 50
SUPERSCRIPT_X 0
SUPERSCRIPT_Y 10
SUPERSCRIPT_SIZE 7
SUBSCRIPT_X 0
SUBSCRIPT_Y 10
SUBSCRIPT_SIZE 7
AVG_LOWERCASE_WIDTH 210
AVG_UPPERCASE_WIDTH 259
ENDPROPERTIES
CHARS 95
STARTCHAR space
ENCODING 32
SWIDTH 278 0
DWIDTH 10 0
BBX 1 1 0 0
BITMAP
00
ENDCHAR
STARTCHAR exclam
ENCODING 33
SWIDTH 278 0
DWIDTH 10 0
BBX 5 26 3 0
BITMAP
F8
F8
F8
F8
F8
F8
F8
F8
F8
F8
F8
70
70
70
70
70
70
70
00
00
F8
F8
F8
F8
F8
F8
ENDCHAR
STARTCHAR quotedbl
ENCODING 34
SWIDTH 463 0
DWIDTH 17 0
BBX 11 12 3 14
BITMAP
F1E0
F1E0
F1E0
F1E0
F1E0
F1E0
F1E0
F1E0
F1E0
F1E0
F1E0
F1E0
ENDCHAR
STARTCHAR numbersign
ENCODING 35
SWIDTH 556 0
DWIDTH 20 0
BBX 18 25 1 0
BITMAP
038700
078F00
078F00
078F00
078F00
070E00
070E00
7FFFC0
7FFFC0
7FFFC0
0F1E00
0F1E00
0E1C00
0E1C00
0E1C00
FFFF80
FFFF80
FFFF80
1E3C00
1C3800
1C3800
1C3800
1C3800
3C7800
3C7800
ENDCHAR
STARTCHAR dollar
ENCODING 36
SWIDTH 556 0
DWIDTH 19 0
BBX 20 33 0 -4
BITMAP
006000
006000
006000
03F800
0FFF00
1FFF80
3FFFC0
3E67C0
7C67E0
7C63E0
7C6000
7C6000
7F6000
7FE000
3FFE00
1FFF80
0FFFC0
01FFE0
007FE0
0067F0
0061F0
F861F0
F861F0
FC61F0
7C63F0
7F6FE0
3FFFC0
1FFF80
0FFF00
03FC00
006000
006000
006000
ENDCHAR
STARTCHAR percent
ENCODING 37
SWIDTH 1000 0
DWIDTH 36 0
BBX 30 27 3 -1
BITMAP
0F800700
3FC00E00
7FE00E00
79E01C00
F0F03800
F0F03800
F0F07000
F0F07000
F0F0E000
F0F0E000
F9E1C000
7FE1C000
3FC383E0
1F838FF0
00071FF8
00071E78
000E3C3C
001C3C3C
001C3C3C
00383C3C
00383C3C
00703C3C
00703C3C
00E01E78
00E01FF8
01C00FF0
03C007C0
ENDCHAR
STARTCHAR ampersand
ENCODING 38
SWIDTH 685 0
DWIDTH 25 0
BBX 24 26 1 0
BITMAP
01F800
07FE00
0FFF00
0F8F00
1F0780
1F0780
1F0780
1F8F80
0FDF80
0FFF00
07FE00
07FC00
1FF800
3FFC78
7F7C78
7E3EF8
FC3FF0
F81FF0
F80FF0
F807E0
FC0FF0
7E1FF0
7FFFF8
3FFEFC
1FFC7E
07F03F
ENDCHAR
STARTCHAR quotesingle
ENCODING 39
SWIDTH 278 0
DWIDTH 10 0
BBX 4 12 3 14
BITMAP
F0
F0
F0
F0
F0
F0
F0
F0
F0
F0
F0
F0
ENDCHAR
STARTCHAR parenleft
ENCODING 40
SWIDTH 296 0
DWIDTH 11 0
BBX 9 33 2 -7
BITMAP
0F80
0F00
1F00
1E00
3E00
3E00
3C00
7C00
7C00
7C00
7800
F800
F800
F800
F800
F800
F800
F800
F800
F800
F800
F800
7800
7C00
7C00
7C00
3C00
3E00
3E00
1E00
1F00
0F00
0F80
ENDCHAR
STARTCHAR parenright
ENCODING 41
SWIDTH 296 0
DWIDTH 11 0
BBX 9 33 0 -7
BITMAP
F800
7800
7C00
3C00
3E00
3E00
1E00
1F00
1F00
1F00
1F00
0F80
0F80
0F80
0F80
0F80
0F80
0F80
0F80
0F80
0F80
0F80
0F00
1F00
1F00
1F00
1E00
3E00
3E00
3C00
7C00
7800
F800
ENDCHAR
STARTCHAR asterisk
ENCODING 42
SWIDTH 407 0
DWIDTH 15 0
BBX 13 13 1 13
BITMAP
0700
0700
0700
4710
F778
FFF8
7FF0
0F80
1FC0
1DC0
3DE0
78F0
1040
ENDCHAR
STARTCHAR plus
ENCODING 43
SWIDTH 600 0
DWIDTH 22 0
BBX 18 18 2 0
BITMAP
01E000
01E000
01E000
01E000
01E000
01E000
01E000
FFFFC0
FFFFC0
FFFFC0
FFFFC0
01E000
01E000
01E000
01E000
01E000
01E000
01E000
ENDCHAR
STARTCHAR comma
ENCODING 44
SWIDTH 278 0
DWIDTH 10 0
BBX 6 12 2 -6
BITMAP
FC
FC
FC
FC
FC
FC
1C
3C
38
F8
F0
C0
ENDCHAR
STARTCHAR hyphen
ENCODING 45
SWIDTH 407 0
DWIDTH 15 0
BBX 11 4 2 8
BITMAP
FFE0
FFE0
FFE0
FFE0
ENDCHAR
STARTCHAR period
ENCODING 46
SWIDTH 278 0
DWIDTH 10 0
BBX 6 6 2 0
BITMAP
FC
FC
FC
FC
FC
FC
ENDCHAR
STARTCHAR slash
ENCODING 47
SWIDTH 371 0
DWIDTH 13 0
BBX 14 27 0 -1
BITMAP
007C
0078
0078
00F0
00F0
00F0
01E0
01E0
03E0
03C0
03C0
0780
0780
0780
0F00
0F00
0F00
1E00
1E00
3C00
3C00
3C00
7800
7800
7800
F000
F000
ENDCHAR
STARTCHAR zero
ENCODING 48
SWIDTH 556 0
DWIDTH 20 0
BBX 18 26 1 0
BITMAP
03F000
0FFC00
1FFE00
3FFF00
3E1F00
7C0F80
7C0F80
780F80
F807C0
F807C0
F807C0
F807C0
F807C0
F807C0
F807C0
F807C0
F807C0
F807C0
7C0F80
7C0F80
7C0F80
3E1F00
3FFF00
1FFE00
0FFC00
03F000
ENDCHAR
STARTCHAR one
ENCODING 49
SWIDTH 556 0
DWIDTH 20 0
BBX 11 25 3 0
BITMAP
01E0
01E0
03E0
07E0
1FE0
FFE0
FFE0
FFE0
FFE0
03E0
03E0
03E0
03E0
03E0
03E0
03E0
03E0
03E0
03E0
03E0
03E0
03E0
03E0
03E0
03E0
ENDCHAR
STARTCHAR two
ENCODING 50
SWIDTH 556 0
DWIDTH 20 0
BBX 18 26 1 0
BITMAP
03F000
0FFC00
3FFF00
3FFF80
7E1F80
7C0FC0
FC07C0
F807C0
F807C0
F807C0
000FC0
001F80
003F80
007F00
00FE00
03FC00
07F800
0FE000
1FC000
3F0000
7E0000
7C0000
FFFFC0
FFFFC0
FFFFC0
FFFFC0
ENDCHAR
STARTCHAR three
ENCODING 51
SWIDTH 556 0
DWIDTH 20 0
BBX 18 26 1 0
BITMAP
03F000
0FFC00
1FFE00
3FFF00
3F1F00
7E0F80
7C0F80
7C0F80
7C0F80
001F80
003F00
01FF00
01FC00
01FF00
01FF80
001F80
000FC0
F807C0
F807C0
F807C0
FC0FC0
7E1F80
7FFF80
3FFF00
1FFE00
03F000
ENDCHAR
STARTCHAR four
ENCODING 52
SWIDTH 556 0
DWIDTH 20 0
BBX 19 25 0 0
BITMAP
001F00
003F00
007F00
007F00
00FF00
01FF00
03FF00
03DF00
079F00
0F1F00
1F1F00
1E1F00
3C1F00
781F00
F81F00
FFFFE0
FFFFE0
FFFFE0
FFFFE0
001F00
001F00
001F00
001F00
001F00
001F00
ENDCHAR
STARTCHAR five
ENCODING 53
SWIDTH 556 0
DWIDTH 20 0
BBX 19 25 0 0
BITMAP
0FFFC0
1FFFC0
1FFFC0
1FFFC0
1E0000
1E0000
1E0000
3E0000
3E7C00
3DFF00
3FFF80
3FFFC0
7E0FC0
7C07E0
0003E0
0003E0
0003E0
FC03E0
FC03E0
7C07C0
7F0FC0
3FFF80
1FFF00
0FFE00
03F800
ENDCHAR
STARTCHAR six
ENCODING 54
SWIDTH 556 0
DWIDTH 20 0
BBX 18 26 1 0
BITMAP
01F800
07FE00
0FFF00
1FFF80
3F1F80
3E0FC0
7C07C0
7C0000
780000
F8F800
FBFE00
FFFF00
FFFF80
FE1F80
FC0FC0
F807C0
F807C0
F807C0
7807C0
7807C0
7C0F80
3E1F80
3FFF00
1FFF00
0FFC00
03F000
ENDCHAR
STARTCHAR seven
ENCODING 55
SWIDTH 556 0
DWIDTH 20 0
BBX 16 25 2 0
BITMAP
FFFF
FFFF
FFFF
FFFF
FFFF
001E
003C
0078
00F8
00F0
01F0
01E0
03E0
03C0
07C0
07C0
0780
0F80
0F80
0F80
0F00
1F00
1F00
1F00
1F00
ENDCHAR
STARTCHAR eight
ENCODING 56
SWIDTH 556 0
DWIDTH 21 0
BBX 19 27 1 -1
BITMAP
03F800
0FFE00
1FFF00
3FFF80
7F1F80
7E0FC0
7C07C0
7C07C0
7C07C0
7C0780
3F1F80
1FFF00
0FFE00
3FFF80
7E0FC0
7C07C0
F803E0
F803E0
F803E0
F803E0
F803E0
FC07E0
7E0FC0
7FFF80
3FFF80
0FFE00
03F800
ENDCHAR
STARTCHAR nine
ENCODING 57
SWIDTH 556 0
DWIDTH 20 0
BBX 18 27 1 -1
BITMAP
03F000
0FFC00
1FFE00
3FFF00
7E1F00
7C0F80
F80F80
F80780
F807C0
F807C0
F807C0
F807C0
FC0FC0
7E1FC0
7FFFC0
3FFFC0
1FF7C0
07C7C0
000F80
000F80
F80F80
FC1F00
7E3F00
7FFE00
3FFC00
1FF800
07E000
ENDCHAR
STARTCHAR colon
ENCODING 58
SWIDTH 278 0
DWIDTH 10 0
BBX 6 19 2 0
BITMAP
FC
FC
FC
FC
FC
FC
00
00
00
00
00
00
00
FC
FC
FC
FC
FC
FC
ENDCHAR
STARTCHAR semicolon
ENCODING 59
SWIDTH 278 0
DWIDTH 10 0
BBX 6 25 2 -6
BITMAP
FC
FC
FC
FC
FC
FC
00
00
00
00
00
00
00
FC
FC
FC
FC
FC
FC
1C
3C
38
F8
F0
C0
ENDCHAR
STARTCHAR less
ENCODING 60
SWIDTH 600 0
DWIDTH 22 0
BBX 18 19 2 0
BITMAP
000040
0003C0
000FC0
007FC0
01FF80
0FFE00
3FF000
FFC000
FE0000
F80000
FE0000
FFC000
3FF000
0FFE00
01FF80
007FC0
000FC0
0003C0
000040
ENDCHAR
STARTCHAR equal
ENCODING 61
SWIDTH 600 0
DWIDTH 22 0
BBX 18 12 2 3
BITMAP
FFFFC0
FFFFC0
FFFFC0
FFFFC0
000000
000000
000000
000000
FFFFC0
FFFFC0
FFFFC0
FFFFC0
ENDCHAR
STARTCHAR greater
ENCODING 62
SWIDTH 600 0
DWIDTH 22 0
BBX 18 19 2 0
BITMAP
800000
E00000
FC0000
FF0000
FFE000
1FF800
07FF00
00FFC0
003FC0
0007C0
003FC0
00FFC0
07FF00
1FF800
7FE000
FF0000
FC0000
E00000
800000
ENDCHAR
STARTCHAR question
ENCODING 63
SWIDTH 556 0
DWIDTH 20 0
BBX 18 26 1 0
BITMAP
03F800
0FFE00
3FFF00
3FFF80
7E1FC0
7C0FC0
F80FC0
F80FC0
F80FC0
001FC0
003F80
007F00
00FE00
01FC00
01F000
03F000
03E000
03E000
000000
000000
03F000
03F000
03F000
03F000
03F000
03F000
ENDCHAR
STARTCHAR at
ENCODING 64
SWIDTH 800 0
DWIDTH 29 0
BBX 26 27 2 -1
BITMAP
003F8000
01FFF000
03FFFC00
0FC07E00
1F001F00
1C000F00
383F3F80
787FBB80
71FFF3C0
71F1F1C0
E3E0F1C0
E3C0F1C0
E780E1C0
E780E1C0
E780E180
E781E380
E781C700
73C3CF00
73FFFE00
79FFFC00
3878F000
1C000780
1F001E00
0FC07C00
03FFF800
01FFF000
003F8000
ENDCHAR
STARTCHAR A
ENCODING 65
SWIDTH 685 0
DWIDTH 25 0
BBX 25 26 0 0
BITMAP
007E0000
007F0000
007F0000
00FF8000
00FF8000
01FF8000
01FFC000
01F7C000
03F7C000
03E7E000
03E3E000
07E3F000
07C3F000
0FC1F000
0F81F800
0F81F800
1FFFF800
1FFFFC00
1FFFFC00
3FFFFE00
3E007E00
7E003E00
7E003F00
7C003F00
FC001F00
FC001F80
ENDCHAR
STARTCHAR B
ENCODING 66
SWIDTH 704 0
DWIDTH 26 0
BBX 23 26 2 0
BITMAP
FFFF00
FFFFE0
FFFFF0
FFFFF0
FC03F8
FC00F8
FC00F8
FC00F8
FC00F8
FC01F8
FC03F0
FFFFE0
FFFFC0
FFFFF0
FFFFFC
FC01FC
FC00FE
FC007E
FC007E
FC007E
FC00FE
FC01FC
FFFFFC
FFFFF8
FFFFF0
FFFF80
ENDCHAR
STARTCHAR C
ENCODING 67
SWIDTH 741 0
DWIDTH 27 0
BBX 24 27 1 -1
BITMAP
007F00
01FFE0
07FFF0
0FFFF8
1FFFFC
3FC1FE
3F807E
7F003F
7E003F
7E001F
FC0000
FC0000
FC0000
FC0000
FC0000
FC0000
FC001F
FE001F
7E003F
7F003F
3F807E
3FC1FE
1FFFFC
0FFFF8
07FFF0
01FFE0
007F80
ENDCHAR
STARTCHAR D
ENCODING 68
SWIDTH 741 0
DWIDTH 27 0
BBX 24 26 2 0
BITMAP
FFFF00
FFFFC0
FFFFF0
FFFFF8
FFFFFC
FC03FC
FC01FE
FC00FE
FC007E
FC007F
FC003F
FC003F
FC003F
FC003F
FC003F
FC003F
FC003F
FC007E
FC007E
FC00FE
FC03FC
FFFFFC
FFFFF8
FFFFF0
FFFFC0
FFFF00
ENDCHAR
STARTCHAR E
ENCODING 69
SWIDTH 648 0
DWIDTH 23 0
BBX 20 26 2 0
BITMAP
FFFFF0
FFFFF0
FFFFF0
FFFFF0
FFFFF0
FC0000
FC0000
FC0000
FC0000
FC0000
FC0000
FFFFC0
FFFFC0
FFFFC0
FFFFC0
FC0000
FC0000
FC0000
FC0000
FC0000
FC0000
FFFFF0
FFFFF0
FFFFF0
FFFFF0
FFFFF0
ENDCHAR
STARTCHAR F
ENCODING 70
SWIDTH 593 0
DWIDTH 21 0
BBX 18 26 2 0
BITMAP
FFFFC0
FFFFC0
FFFFC0
FFFFC0
FFFFC0
FC0000
FC0000
FC0000
FC0000
FC0000
FC0000
FFFF80
FFFF80
FFFF80
FFFF80
FC0000
FC0000
FC0000
FC0000
FC0000
FC0000
FC0000
FC0000
FC0000
FC0000
FC0000
ENDCHAR
STARTCHAR G
ENCODING 71
SWIDTH 759 0
DWIDTH 27 0
BBX 24 27 1 -1
BITMAP
007F00
01FFE0
07FFF0
0FFFF8
1FFFFC
3FC1FE
3F807E
7F003E
7E003F
7E0000
FC0000
FC0000
FC07FF
FC07FF
FC07FF
FC07FF
FC001F
FE001F
7E003F
7F003F
3F807F
3FC0FF
1FFFFF
0FFFFF
07FFEF
03FFCF
007F00
ENDCHAR
STARTCHAR H
ENCODING 72
SWIDTH 741 0
DWIDTH 27 0
BBX 22 26 2 0
BITMAP
FC00FC
FC00FC
FC00FC
FC00FC
FC00FC
FC00FC
FC00FC
FC00FC
FC00FC
FC00FC
FFFFFC
FFFFFC
FFFFFC
FFFFFC
FFFFFC
FC00FC
FC00FC
FC00FC
FC00FC
FC00FC
FC00FC
FC00FC
FC00FC
FC00FC
FC00FC
FC00FC
ENDCHAR
STARTCHAR I
ENCODING 73
SWIDTH 295 0
DWIDTH 10 0
BBX 6 26 2 0
BITMAP
FC
FC
FC
FC
FC
FC
FC
FC
FC
FC
FC
FC
FC
FC
FC
FC
FC
FC
FC
FC
FC
FC
FC
FC
FC
FC
ENDCHAR
STARTCHAR J
ENCODING 74
SWIDTH 556 0
DWIDTH 20 0
BBX 17 27 1 -1
BITMAP
001F80
001F80
001F80
001F80
001F80
001F80
001F80
001F80
001F80
001F80
001F80
001F80
001F80
001F80
001F80
001F80
001F80
F81F80
F81F80
F81F80
F81F80
FC3F80
7FFF00
7FFF00
3FFE00
1FFC00
07F000
ENDCHAR
STARTCHAR K
ENCODING 75
SWIDTH 722 0
DWIDTH 26 0
BBX 24 26 2 0
BITMAP
FC00FE
FC01FC
FC03F8
FC07F0
FC0FE0
FC1FC0
FC3F80
FC7F00
FCFE00
FDFC00
FFF800
FFFC00
FFFE00
FFFE00
FFFF00
FF3F80
FE1F80
FC1FC0
FC0FE0
FC07F0
FC07F0
FC03F8
FC01FC
FC01FC
FC00FE
FC007F
ENDCHAR
STARTCHAR L
ENCODING 76
SWIDTH 593 0
DWIDTH 21 0
BBX 19 26 2 0
BITMAP
FC0000
FC0000
FC0000
FC0000
FC0000
FC0000
FC0000
FC0000
FC0000
FC0000
FC0000
FC0000
FC0000
FC0000
FC0000
FC0000
FC0000
FC0000
FC0000
FC0000
FC0000
FFFFE0
FFFFE0
FFFFE0
FFFFE0
FFFFE0
ENDCHAR
STARTCHAR M
ENCODING 77
SWIDTH 907 0
DWIDTH 33 0
BBX 27 26 3 0
BITMAP
FF001FE0
FF001FE0
FF803FE0
FF803FE0
FF803FE0
FFC03FE0
FFC07FE0
FFC07FE0
FFE07FE0
FBE0FBE0
FBE0FBE0
FBF0FBE0
F9F1F3E0
F9F1F3E0
F9F9F3E0
F8FBE3E0
F8FBE3E0
F8FFE3E0
F87FC3E0
F87FC3E0
F87FC3E0
F83F83E0
F83F83E0
F83F83E0
F81F03E0
F81F03E0
ENDCHAR
STARTCHAR N
ENCODING 78
SWIDTH 741 0
DWIDTH 27 0
BBX 21 26 3 0
BITMAP
FC00F8
FC00F8
FE00F8
FF00F8
FF00F8
FF80F8
FF80F8
FFC0F8
FFE0F8
FBE0F8
FBF0F8
F9F0F8
F9F8F8
F8FCF8
F87CF8
F87EF8
F83EF8
F83FF8
F81FF8
F80FF8
F80FF8
F807F8
F807F8
F803F8
F801F8
F801F8
ENDCHAR
STARTCHAR O
ENCODING 79
SWIDTH 778 0
DWIDTH 28 0
BBX 26 27 1 -1
BITMAP
007F8000
01FFE000
07FFF800
0FFFFC00
1FFFFE00
3FC0FF00
3F807F00
7F003F80
7E001F80
FE001F80
FC000FC0
FC000FC0
FC000FC0
FC000FC0
FC000FC0
FC000FC0
FC000FC0
FE001FC0
7E001F80
7F003F80
3F807F00
3FC0FF00
1FFFFE00
0FFFFC00
07FFF800
01FFE000
007F8000
ENDCHAR
STARTCHAR P
ENCODING 80
SWIDTH 667 0
DWIDTH 24 0
BBX 21 26 2 0
BITMAP
FFFE00
FFFFC0
FFFFE0
FFFFF0
FC03F0
FC01F8
FC00F8
FC00F8
FC00F8
FC00F8
FC00F8
FC01F8
FC03F0
FFFFF0
FFFFE0
FFFFC0
FFFF00
FC0000
FC0000
FC0000
FC0000
FC0000
FC0000
FC0000
FC0000
FC0000
ENDCHAR
STARTCHAR Q
ENCODING 81
SWIDTH 778 0
DWIDTH 28 0
BBX 26 28 1 -2
BITMAP
007F8000
01FFE000
07FFF800
0FFFFC00
1FFFFE00
3FC0FF00
3F807F00
7F003F80
7E001F80
FE001FC0
FC000FC0
FC000FC0
FC000FC0
FC000FC0
FC000FC0
FC000FC0
FC000FC0
FE011F80
7E039F80
7F07FF80
3F83FF00
3FC1FF00
1FFFFE00
0FFFFF00
07FFFF80
01FFFFC0
007F8780
00000100
ENDCHAR
STARTCHAR R
ENCODING 82
SWIDTH 722 0
DWIDTH 26 0
BBX 23 26 2 0
BITMAP
FFFF80
FFFFE0
FFFFF0
FFFFF8
FC03F8
FC01FC
FC00FC
FC00FC
FC00FC
FC00FC
FC01F8
FC03F8
FFFFF0
FFFFE0
FFFFE0
FFFFF0
FC03F8
FC01F8
FC00F8
FC00F8
FC00F8
FC00FC
FC00FC
FC00FC
FC00FC
FC007E
ENDCHAR
STARTCHAR S
ENCODING 83
SWIDTH 649 0
DWIDTH 23 0
BBX 21 26 1 0
BITMAP
01FC00
0FFF80
1FFFC0
3FFFE0
3F07E0
7C03F0
7C01F0
7C01F0
7E0000
7F8000
3FF800
3FFF00
1FFFC0
07FFE0
00FFF0
001FF8
0003F8
F800F8
F800F8
FC00F8
FC01F8
7F03F0
3FFFF0
1FFFE0
0FFF80
01FE00
ENDCHAR
STARTCHAR T
ENCODING 84
SWIDTH 611 0
DWIDTH 22 0
BBX 22 26 0 0
BITMAP
FFFFFC
FFFFFC
FFFFFC
FFFFFC
FFFFFC
00FC00
00FC00
00FC00
00FC00
00FC00
00FC00
00FC00
00FC00
00FC00
00FC00
00FC00
00FC00
00FC00
00FC00
00FC00
00FC00
00FC00
00FC00
00FC00
00FC00
00FC00
ENDCHAR
STARTCHAR U
ENCODING 85
SWIDTH 741 0
DWIDTH 27 0
BBX 22 27 2 -1
BITMAP
FC00FC
FC00FC
FC00FC
FC00FC
FC00FC
FC00FC
FC00FC
FC00FC
FC00FC
FC00FC
FC00FC
FC00FC
FC00FC
FC00FC
FC00FC
FC00FC
FC00FC
FC00FC
FC00FC
FC00FC
FE01F8
7F03F8
7FFFF8
3FFFF0
1FFFE0
0FFFC0
01FE00
ENDCHAR
STARTCHAR V
ENCODING 86
SWIDTH 630 0
DWIDTH 23 0
BBX 23 26 0 0
BITMAP
FC007E
FC007C
7C00FC
7E00FC
7E00FC
7E01F8
3F01F8
3F01F8
3F03F0
1F83F0
1F83F0
1F87E0
0F87E0
0FC7E0
0FC7C0
07CFC0
07EFC0
07EF80
03FF80
03FF80
03FF00
01FF00
01FF00
01FE00
00FE00
00FE00
ENDCHAR
STARTCHAR W
ENCODING 87
SWIDTH 944 0
DWIDTH 34 0
BBX 34 26 0 0
BITMAP
FC03F00FC0
FC03F00F80
7C03F00F80
7E07F81F80
7E07F81F80
3E07F81F00
3E07F81F00
3F0FFC1F00
3F0FFC3F00
1F0FFC3E00
1F0F3C3E00
1F1F3C3E00
1F9F3E7E00
0F9F3E7C00
0F9E3E7C00
0FBE1E7C00
0FFE1FFC00
07FE1FF800
07FC1FF800
07FC0FF800
07FC0FF000
03FC0FF000
03F80FF000
03F807F000
03F807E000
01F807E000
ENDCHAR
STARTCHAR X
ENCODING 88
SWIDTH 667 0
DWIDTH 24 0
BBX 24 26 0 0
BITMAP
FE007F
7F00FE
3F80FC
1F81F8
1FC3F8
0FC3F0
07E7E0
07F7E0
03FFC0
01FF80
00FF80
00FF00
007E00
00FF00
01FF80
01FF80
03FFC0
07FFE0
07E7E0
0FC7F0
1FC3F8
1F81F8
3F01FC
7F00FE
7E007E
FC007F
ENDCHAR
STARTCHAR Y
ENCODING 89
SWIDTH 667 0
DWIDTH 24 0
BBX 25 26 0 0
BITMAP
FC003F80
FE007F00
7E007E00
3F00FC00
3F80FC00
1F81F800
1FC3F800
0FC3F000
07E7E000
07F7E000
03FFC000
03FFC000
01FF8000
00FF8000
00FF0000
007E0000
007E0000
007E0000
007E0000
007E0000
007E0000
007E0000
007E0000
007E0000
007E0000
007E0000
ENDCHAR
STARTCHAR Z
ENCODING 90
SWIDTH 648 0
DWIDTH 23 0
BBX 22 26 1 0
BITMAP
7FFFF8
7FFFF8
7FFFF8
7FFFF8
7FFFF8
0007F0
000FE0
000FE0
001FC0
003F80
007F00
00FE00
01FC00
01FC00
03F800
07F000
0FE000
1FC000
3F8000
3F8000
7F0000
FFFFFC
FFFFFC
FFFFFC
FFFFFC
FFFFFC
ENDCHAR
STARTCHAR bracketleft
ENCODING 91
SWIDTH 333 0
DWIDTH 12 0
BBX 9 33 3 -7
BITMAP
FF80
FF80
FF80
FF80
F800
F800
F800
F800
F800
F800
F800
F800
F800
F800
F800
F800
F800
F800
F800
F800
F800
F800
F800
F800
F800
F800
F800
F800
F800
FF80
FF80
FF80
FF80
ENDCHAR
STARTCHAR backslash
ENCODING 92
SWIDTH 371 0
DWIDTH 13 0
BBX 14 27 0 -1
BITMAP
F000
F000
7800
7800
7800
3C00
3C00
3E00
1E00
1E00
0F00
0F00
0F00
0780
0780
0780
03C0
03C0
03E0
01E0
01E0
00F0
00F0
00F0
0078
0078
007C
ENDCHAR
STARTCHAR bracketright
ENCODING 93
SWIDTH 333 0
DWIDTH 11 0
BBX 9 33 0 -7
BITMAP
FF80
FF80
FF80
FF80
0F80
0F80
0F80
0F80
0F80
0F80
0F80
0F80
0F80
0F80
0F80
0F80
0F80
0F80
0F80
0F80
0F80
0F80
0F80
0F80
0F80
0F80
0F80
0F80
0F80
FF80
FF80
FF80
FF80
ENDCHAR
STARTCHAR asciicircum
ENCODING 94
SWIDTH 600 0
DWIDTH 22 0
BBX 17 14 2 11
BITMAP
03E000
03F000
07F000
07F800
0FF800
0F7C00
0F3C00
1E3E00
1E1E00
3C1E00
3C0F00
7C0F00
780780
F80780
ENDCHAR
STARTCHAR underscore
ENCODING 95
SWIDTH 500 0
DWIDTH 18 0
BBX 18 2 0 -5
BITMAP
FFFFC0
FFFFC0
ENDCHAR
STARTCHAR grave
ENCODING 96
SWIDTH 259 0
DWIDTH 9 0
BBX 9 5 -2 21
BITMAP
FC00
3E00
1F00
0F00
0780
ENDCHAR
STARTCHAR a
ENCODING 97
SWIDTH 574 0
DWIDTH 21 0
BBX 19 19 1 0
BITMAP
03FC00
0FFF00
3FFF80
3E0FC0
7C07C0
7C07C0
0007C0
003FC0
0FFFC0
3FFFC0
7FE7C0
FC07C0
F807C0
F807C0
F80FC0
FC1FC0
7FFFC0
3FF7C0
1FC7E0
ENDCHAR
STARTCHAR b
ENCODING 98
SWIDTH 611 0
DWIDTH 22 0
BBX 19 27 2 -1
BITMAP
F80000
F80000
F80000
F80000
F80000
F80000
F80000
F8FC00
FBFE00
FFFF80
FFFF80
FE0FC0
FC07C0
FC07E0
F803E0
F803E0
F803E0
F803E0
F803E0
F803E0
FC07E0
FC07C0
FE0FC0
FFFF80
FFFF80
FBFF00
00FC00
ENDCHAR
STARTCHAR c
ENCODING 99
SWIDTH 574 0
DWIDTH 21 0
BBX 18 20 1 -1
BITMAP
03F800
0FFE00
1FFF00
3FFF80
7E0FC0
7C07C0
7C07C0
F80000
F80000
F80000
F80000
F80000
F807C0
FC07C0
7C0FC0
7E1F80
3FFF80
1FFF00
0FFE00
03F800
ENDCHAR
STARTCHAR d
ENCODING 100
SWIDTH 611 0
DWIDTH 22 0
BBX 19 27 1 -1
BITMAP
0003E0
0003E0
0003E0
0003E0
0003E0
0003E0
0003E0
07E3E0
0FFBE0
1FFFE0
3FFFE0
7E0FE0
7C07E0
FC07E0
F803E0
F803E0
F803E0
F803E0
F803E0
F803E0
FC07E0
7C07E0
7F0FE0
3FFFE0
1FFFE0
0FFBE0
07E3E0
ENDCHAR
STARTCHAR e
ENCODING 101
SWIDTH 574 0
DWIDTH 21 0
BBX 18 20 1 -1
BITMAP
03F800
0FFC00
1FFF00
3FFF80
7E1F80
7C0FC0
7807C0
F807C0
FFFFC0
FFFFC0
FFFFC0
F80000
F80000
F80000
7C07C0
7E0F80
3FFF80
1FFF00
0FFE00
03F800
ENDCHAR
STARTCHAR f
ENCODING 102
SWIDTH 333 0
DWIDTH 12 0
BBX 12 26 0 0
BITMAP
03F0
07F0
0FF0
1FF0
1F80
1F00
1F00
1F00
FFF0
FFF0
FFF0
1F00
1F00
1F00
1F00
1F00
1F00
1F00
1F00
1F00
1F00
1F00
1F00
1F00
1F00
1F00
ENDCHAR
STARTCHAR g
ENCODING 103
SWIDTH 611 0
DWIDTH 22 0
BBX 19 26 1 -7
BITMAP
07E000
0FFBE0
3FFFE0
3FFFE0
7E0FE0
7C07E0
FC07E0
F803E0
F803E0
F803E0
F803E0
F803E0
FC07E0
7C07E0
7E0FE0
7FFFE0
3FFFE0
1FFBE0
07E3E0
0003E0
7C03E0
7E07C0
3F0FC0
3FFF80
0FFF00
03F800
ENDCHAR
STARTCHAR h
ENCODING 104
SWIDTH 593 0
DWIDTH 21 0
BBX 17 26 2 0
BITMAP
F80000
F80000
F80000
F80000
F80000
F80000
F80000
F8F800
FBFE00
FFFF00
FFFF00
FE1F80
FC1F80
F80F80
F80F80
F80F80
F80F80
F80F80
F80F80
F80F80
F80F80
F80F80
F80F80
F80F80
F80F80
F80F80
ENDCHAR
STARTCHAR i
ENCODING 105
SWIDTH 258 0
DWIDTH 9 0
BBX 5 26 2 0
BITMAP
F8
F8
F8
F8
00
00
00
F8
F8
F8
F8
F8
F8
F8
F8
F8
F8
F8
F8
F8
F8
F8
F8
F8
F8
F8
ENDCHAR
STARTCHAR j
ENCODING 106
SWIDTH 278 0
DWIDTH 9 0
BBX 8 33 -1 -7
BITMAP
1F
1F
1F
1F
00
00
00
1F
1F
1F
1F
1F
1F
1F
1F
1F
1F
1F
1F
1F
1F
1F
1F
1F
1F
1F
1F
1F
FF
FF
FE
FC
F0
ENDCHAR
STARTCHAR k
ENCODING 107
SWIDTH 574 0
DWIDTH 21 0
BBX 18 26 2 0
BITMAP
F80000
F80000
F80000
F80000
F80000
F80000
F80000
F81F80
F83F00
F87E00
F8FC00
F9F800
FBF000
FFE000
FFE000
FFE000
FFF000
FFF800
FDF800
F8FC00
F87E00
F87E00
F83F00
F81F80
F81F80
F80FC0
ENDCHAR
STARTCHAR l
ENCODING 108
SWIDTH 258 0
DWIDTH 9 0
BBX 5 26 2 0
BITMAP
F8
F8
F8
F8
F8
F8
F8
F8
F8
F8
F8
F8
F8
F8
F8
F8
F8
F8
F8
F8
F8
F8
F8
F8
F8
F8
ENDCHAR
STARTCHAR m
ENCODING 109
SWIDTH 906 0
DWIDTH 32 0
BBX 28 19 2 0
BITMAP
F8FC1F00
FBFE3FC0
FFFF7FE0
FFFFFFF0
FE1FC3F0
FC0FC1F0
F80F81F0
F80F81F0
F80F81F0
F80F81F0
F80F81F0
F80F81F0
F80F81F0
F80F81F0
F80F81F0
F80F81F0
F80F81F0
F80F81F0
F80F81F0
ENDCHAR
STARTCHAR n
ENCODING 110
SWIDTH 593 0
DWIDTH 21 0
BBX 17 19 2 0
BITMAP
F8FC00
FBFE00
FFFF00
FFFF00
FE1F80
FC1F80
F80F80
F80F80
F80F80
F80F80
F80F80
F80F80
F80F80
F80F80
F80F80
F80F80
F80F80
F80F80
F80F80
ENDCHAR
STARTCHAR o
ENCODING 111
SWIDTH 611 0
DWIDTH 22 0
BBX 20 20 1 -1
BITMAP
03F800
0FFF00
1FFF80
3FFFC0
7F0FE0
7C03E0
FC03E0
F801F0
F801F0
F801F0
F801F0
F801F0
F801F0
FC03F0
7C03E0
7F0FE0
3FFFC0
1FFF80
0FFF00
03FC00
ENDCHAR
STARTCHAR p
ENCODING 112
SWIDTH 611 0
DWIDTH 22 0
BBX 19 26 2 -7
BITMAP
00FC00
FBFE00
FFFF00
FFFF80
FE1FC0
FC07C0
FC07E0
F803E0
F803E0
F803E0
F803E0
F803E0
F803E0
FC07E0
FC07C0
FE0FC0
FFFF80
FFFF80
FBFE00
F8FC00
F80000
F80000
F80000
F80000
F80000
F80000
ENDCHAR
STARTCHAR q
ENCODING 113
SWIDTH 611 0
DWIDTH 22 0
BBX 19 26 1 -7
BITMAP
07E000
0FFBE0
1FFFE0
3FFFE0
7E0FE0
7C07E0
FC07E0
F803E0
F803E0
F803E0
F803E0
F803E0
F803E0
FC07E0
7C07E0
7E0FE0
3FFFE0
3FFFE0
1FFBE0
07E3E0
0003E0
0003E0
0003E0
0003E0
0003E0
0003E0
ENDCHAR
STARTCHAR r
ENCODING 114
SWIDTH 389 0
DWIDTH 14 0
BBX 12 19 2 0
BITMAP
00F0
F9F0
FBF0
FFF0
FFF0
FF00
FC00
FC00
F800
F800
F800
F800
F800
F800
F800
F800
F800
F800
F800
ENDCHAR
STARTCHAR s
ENCODING 115
SWIDTH 537 0
DWIDTH 20 0
BBX 17 19 1 0
BITMAP
0FF000
3FFC00
7FFF00
FC3F00
F80F80
F80F80
FE0000
FFE000
7FFC00
3FFF00
07FF80
007F80
F81F80
F80F80
FC0F80
7E1F00
3FFF00
1FFE00
07F000
ENDCHAR
STARTCHAR t
ENCODING 116
SWIDTH 352 0
DWIDTH 13 0
BBX 12 24 0 0
BITMAP
1F00
1F00
1F00
1F00
1F00
1F00
FFF0
FFF0
FFF0
1F00
1F00
1F00
1F00
1F00
1F00
1F00
1F00
1F00
1F00
1F00
1FF0
1FF0
0FF0
07F0
ENDCHAR
STARTCHAR u
ENCODING 117
SWIDTH 593 0
DWIDTH 21 0
BBX 17 19 2 0
BITMAP
F80F80
F80F80
F80F80
F80F80
F80F80
F80F80
F80F80
F80F80
F80F80
F80F80
F80F80
F80F80
F80F80
F81F80
FC3F80
7FFF80
7FFF80
3FEF80
1F8F80
ENDCHAR
STARTCHAR v
ENCODING 118
SWIDTH 520 0
DWIDTH 19 0
BBX 19 19 0 0
BITMAP
FC07E0
7C07C0
7C07C0
7E0F80
3E0F80
3E0F80
3F1F00
1F1F00
1F1F00
1F1E00
0FBE00
0FBE00
0FBC00
07FC00
07FC00
07F800
03F800
03F800
03F000
ENDCHAR
STARTCHAR w
ENCODING 119
SWIDTH 814 0
DWIDTH 29 0
BBX 29 19 0 0
BITMAP
FC0F80F8
7C0FC1F8
7C0FC1F0
7E1FC1F0
3E1FC1F0
3E1FE3E0
3E1FE3E0
1F3DE3E0
1F3DE3C0
1F3DF7C0
1F3CF7C0
0FF8F7C0
0FF8FF80
0FF87F80
07F87F80
07F07F00
07F07F00
03F03F00
03F03E00
ENDCHAR
STARTCHAR x
ENCODING 120
SWIDTH 537 0
DWIDTH 19 0
BBX 19 19 0 0
BITMAP
7E07E0
3E0FC0
3F1F80
1F9F00
0FBE00
0FFE00
07FC00
03F800
03F800
03F800
03FC00
07FC00
0FFE00
0FBF00
1F9F00
3F1F80
3E0FC0
7E07C0
FC07E0
ENDCHAR
STARTCHAR y
ENCODING 121
SWIDTH 519 0
DWIDTH 19 0
BBX 19 26 0 -7
BITMAP
F807E0
FC07C0
7C07C0
7C07C0
7E0F80
3E0F80
3E0F80
1F1F00
1F1F00
1F1E00
0FBE00
0FBE00
0FBC00
07FC00
07FC00
03F800
03F800
03F800
01F000
03F000
03F000
3FE000
3FE000
3FC000
3F8000
1F0000
ENDCHAR
STARTCHAR z
ENCODING 122
SWIDTH 519 0
DWIDTH 19 0
BBX 17 19 1 0
BITMAP
7FFF00
7FFF00
7FFF00
7FFF00
007F00
00FE00
01FC00
03F800
03F000
07E000
0FC000
1FC000
3F8000
7F0000
FE0000
FFFF80
FFFF80
FFFF80
FFFF80
ENDCHAR
STARTCHAR braceleft
ENCODING 123
SWIDTH 333 0
DWIDTH 12 0
BBX 12 33 0 -7
BITMAP
03F0
0FF0
0FF0
1FF0
1F80
1F00
1F00
1F00
1F00
1F00
1F00
1F00
1F00
3F00
7F00
FE00
F800
FE00
7E00
3F00
1F00
1F00
1F00
1F00
1F00
1F00
1F00
1F00
1F80
1FF0
0FF0
0FF0
03F0
ENDCHAR
STARTCHAR bar
ENCODING 124
SWIDTH 223 0
DWIDTH 8 0
BBX 4 36 2 -8
BITMAP
F0
F0
F0
F0
F0
F0
F0
F0
F0
F0
F0
F0
F0
F0
F0
F0
F0
F0
F0
F0
F0
F0
F0
F0
F0
F0
F0
F0
F0
F0
F0
F0
F0
F0
F0
F0
ENDCHAR
STARTCHAR braceright
ENCODING 125
SWIDTH 333 0
DWIDTH 12 0
BBX 12 33 0 -7
BITMAP
FC00
FF00
FF00
FF80
1F80
0F80
0F80
0F80
0F80
0F80
0F80
0F80
0F80
0FC0
0FE0
07F0
01F0
07F0
07E0
0F80
0F80
0F80
0F80
0F80
0F80
0F80
0F80
0F80
1F80
FF80
FF00
FF00
FC00
ENDCHAR
STARTCHAR asciitilde
ENCODING 126
SWIDTH 600 0
DWIDTH 22 0
BBX 17 6 2 6
BITMAP
1F0100
7FC300
7FFF80
FFFF80
60FF00
403E00
ENDCHAR
ENDFONT
